Coordinates
version=1
nRows=16
nColumns=36
inDegrees=yes

Units are S.I. units (second, meters, Newtons, ...)
If the header above contains a line with 'inDegrees', this indicates whether rotational values are in degrees (yes) or radians (no).

endheader
time	pelvis_tilt	pelvis_list	pelvis_rotation	pelvis_tx	pelvis_ty	pelvis_tz	hip_flexion_r	hip_adduction_r	hip_rotation_r	knee_angle_r	knee_angle_r_beta	ankle_angle_r	subtalar_angle_r	mtp_angle_r	hip_flexion_l	hip_adduction_l	hip_rotation_l	knee_angle_l	knee_angle_l_beta	ankle_angle_l	subtalar_angle_l	mtp_angle_l	lumbar_extension	lumbar_bending	lumbar_rotation	arm_flex_r	arm_add_r	arm_rot_r	elbow_flex_r	pro_sup_r	arm_flex_l	arm_add_l	arm_rot_l	elbow_flex_l	pro_sup_l
      0.86000000	    -13.46902676	      0.56700742	      1.51642606	     -0.80782667	      1.17845257	     -0.58551550	     16.36287396	     -2.02143195	     -4.68340238	     53.90433774	      0.94080817	     20.33051260	     -8.40169184	     -5.45605845	     58.18065052	     -4.55268055	     -4.75296687	     84.59524772	      1.47646560	     -6.34011065	    -16.31618965	     -5.45605845	    -16.33924663	     -0.00740664	      3.93271092	     44.01236566	     -8.94333380	     -6.70123087	     87.15608063	    104.95839814	     11.09590191	    -12.93113858	      6.65678290	     64.17380694	    105.12113847
      0.87000000	    -12.35499895	      0.88174702	      1.73806023	     -0.79406773	      1.18586649	     -0.58647420	     15.87790305	     -2.69501590	     -4.99438354	     55.66350320	      0.97151140	     15.10178125	     -9.38521572	     -5.54815168	     56.77456229	     -4.47198332	     -5.51612721	     81.53270343	      1.42301412	     -6.30754512	    -15.18256032	     -5.54815168	    -17.42131174	     -0.48881146	      3.59357965	     43.62609524	     -8.70224020	     -7.08934660	     89.02371043	    105.35565448	     10.27523716	    -12.96699789	      5.76972689	     64.62185434	    105.69632042
      0.88000000	    -11.51356309	      0.95201934	      2.00314047	     -0.78110933	      1.19230903	     -0.58773403	     16.19716866	     -3.15723748	     -5.32268228	     58.08073128	      1.01369999	     10.04803208	    -10.69830815	     -5.62290851	     55.65967840	     -4.41695204	     -6.02818045	     78.22265399	      1.36524286	     -6.86404321	    -14.89608079	     -5.62290851	    -18.37246715	     -0.64383599	      3.15700931	     43.19655760	     -8.38186552	     -7.38211556	     90.76049139	    105.55351633	      9.48718692	    -12.90349517	      5.00447745	     65.13981352	    106.05209544
      0.89000000	    -10.81148736	      1.00401941	      2.21802830	     -0.76848396	      1.19801542	     -0.58907497	     16.94159743	     -3.59765841	     -5.48740720	     60.88291418	      1.06260731	      6.56286641	    -11.92378760	     -5.68150538	     54.54235553	     -4.34459051	     -6.51072168	     74.61546828	      1.30228559	     -7.59993134	    -14.63097009	     -5.68150538	    -19.31814498	     -0.75773860	      2.66409962	     42.68746261	     -8.05002257	     -7.52105708	     92.33293274	    105.64505391	      8.77859360	    -12.90735083	      4.47008786	     65.63079579	    106.31161774
      0.90000000	    -10.13498941	      1.11737993	      2.31689365	     -0.75595134	      1.20304142	     -0.59040338	     17.79240891	     -4.08492794	     -5.51048970	     63.76278791	      1.11287059	      5.67304369	    -12.62437219	     -5.70706289	     53.26513540	     -4.26311057	     -7.01336772	     70.71466023	      1.23420365	     -8.47564742	    -13.88508556	     -5.70706289	    -20.29953456	     -0.91631548	      2.22497187	     41.99583914	     -7.94834697	     -7.35110089	     93.74592308	    105.71052597	      8.23167153	    -12.94832949	      3.99816288	     65.87767814	    106.45718045
      0.91000000	     -9.54250901	      1.07402674	      2.27245577	     -0.74390077	      1.20716590	     -0.59135324	     18.86440385	     -4.15570157	     -5.15810284	     66.44844381	      1.15974413	      6.27475661	    -13.34326060	     -5.74342280	     51.98660595	     -4.33039213	     -7.28491688	     66.62577492	      1.16283914	     -9.71346639	    -13.38539083	     -5.74342280	    -21.34952092	     -0.98007702	      1.94554958	     41.25406205	     -7.71875091	     -7.36410570	     95.04405675	    105.68544623	      7.82568796	    -12.84082172	      3.51698727	     66.28014662	    106.73332752
      0.92000000	     -9.10118715	      0.98883908	      2.15167829	     -0.73215698	      1.21014413	     -0.59225426	     20.22339139	     -4.18314253	     -4.84189373	     68.74746931	      1.19986969	      7.12423876	    -13.50910178	     -5.77280165	     50.75548641	     -4.47920405	     -7.57879179	     62.34649423	      1.08815160	    -11.19214509	    -12.51926617	     -5.77280165	    -22.27816794	     -0.96712022	      1.75940494	     40.46250617	     -7.72509954	     -7.17126193	     96.17220727	    105.64687522	      7.48875121	    -12.64570430	      3.23543483	     66.45688600	    106.97016392
      0.93000000	     -8.75348606	      0.84233760	      1.96183231	     -0.72062912	      1.21194073	     -0.59303843	     21.79912345	     -4.16759718	     -4.54928112	     70.54516382	      1.23124538	      7.60139454	    -13.16627168	     -5.79545234	     49.51599879	     -4.70846386	     -7.79882396	     57.95655683	      1.01153274	    -12.87171333	    -11.55381575	     -5.79545234	    -23.13259610	     -0.88707430	      1.65687889	     39.62425489	     -7.73930509	     -7.00560218	     97.11382698	    105.60194373	      7.23960379	    -12.45896311	      3.09375373	     66.55144346	    107.19977883
      0.94000000	     -8.52037821	      0.76611676	      1.72472809	     -0.70922989	      1.21260828	     -0.59380143	     23.51354376	     -4.29315523	     -4.27709658	     71.78324929	      1.25285405	      9.07553946	    -11.22548941	     -5.86707516	     48.25338462	     -4.83583155	     -8.07473897	     53.30740093	      0.93038966	    -15.70217907	    -11.75400547	     -5.86707516	    -23.87962778	     -0.96994420	      1.79338171	     38.50404823	     -7.80034121	     -7.28505502	     98.07003355	    105.27317347	      7.21524906	    -12.28194658	      3.17298309	     66.59113463	    107.96258949
      0.95000000	     -8.41361136	      0.56888877	      1.44907339	     -0.69790028	      1.21215261	     -0.59452536	     25.28399886	     -4.26488312	     -4.13933482	     72.17208595	      1.25964053	      9.88017649	    -10.26216620	     -5.90145480	     47.04581106	     -5.12621293	     -8.32054499	     48.59008402	      0.84805695	    -18.13598777	    -10.57526575	     -5.90145480	    -24.53765505	     -0.94430888	      1.87017912	     37.44737956	     -7.89901606	     -7.45024727	     98.74739228	    105.15544702	      7.06327625	    -11.99490671	      2.86021870	     66.83024196	    108.24093944
      0.96000000	     -8.42886566	      0.13183638	      1.22791779	     -0.68652893	      1.21047430	     -0.59532756	     27.01204218	     -4.01537709	     -4.30688248	     71.64986888	      1.25052612	     10.39540921	     -9.49926770	     -5.91768447	     45.97211006	     -5.47427645	     -8.04072633	     43.93171421	      0.76675306	    -20.13608229	     -9.45513701	     -5.91768447	    -24.98051290	     -0.67072824	      2.00167661	     36.34700889	     -8.17396701	     -7.35577129	     99.00475582	    105.10606806	      6.79799718	    -11.67576712	      2.57453407	     67.10729226	    108.35784056
      0.97000000	     -8.35159070	     -0.01942390	      0.96171072	     -0.67521811	      1.20789226	     -0.59640532	     28.54461067	     -4.17297325	     -4.43726421	     70.54700082	      1.23127744	     11.51187432	     -7.31396222	     -5.98801279	     44.62520987	     -5.59255137	     -8.21225778	     39.02097346	      0.68104446	    -23.80940039	     -9.88456619	     -5.98801279	    -25.55862962	     -0.51024461	      1.81204796	     35.52045135	     -8.12909227	     -7.19868304	     99.10191199	    104.71589861	      6.38865153	    -11.42768372	      2.02863470	     67.52478931	    108.73552748
      0.98000000	     -8.35809570	     -0.31713541	      0.66464104	     -0.66381990	      1.20409492	     -0.59756554	     29.95016683	     -4.16362515	     -4.79969585	     68.61629614	      1.19758029	     11.48409908	     -6.50519387	     -6.04919665	     43.41798484	     -5.91650549	     -8.43415775	     34.37698526	      0.59999158	    -26.25196186	     -9.02467462	     -6.04919665	    -25.99307662	     -0.13169955	      1.57428168	     34.88372083	     -8.12184267	     -6.77473280	     98.82974278	    104.35076009	      5.75790704	    -11.13596482	      1.26526630	     68.10979351	    109.01973897
      0.99000000	     -8.54225051	     -0.70621339	      0.32908688	     -0.65202780	      1.19915560	     -0.59867783	     31.27512355	     -4.06732278	     -5.38325457	     65.93574822	      1.15079590	     11.13763783	     -5.95830660	     -6.07451445	     42.41843260	     -6.38921428	     -8.62474663	     29.96900893	      0.52305788	    -27.97402104	     -7.46652440	     -6.07451445	    -26.21754385	      0.08623499	      1.73174298	     33.81769399	     -8.36111891	     -6.85431788	     98.85959476	    104.14468126	      5.31864667	    -10.83180964	      0.71659726	     68.73582519	    109.08919199
      1.00000000	     -8.73305008	     -1.22865242	      0.00572881	     -0.63979885	      1.19343769	     -0.59997004	     32.29968282	     -3.88613799	     -6.25158786	     62.59178718	      1.09243277	     10.51394625	     -5.33786312	     -6.09707995	     41.41301777	     -6.98229032	     -8.79025590	     25.71078426	      0.44873784	    -29.27271505	     -6.14284945	     -6.09707995	    -26.42497202	      0.26685784	      2.13741019	     32.54311111	     -8.79783446	     -7.21374738	     98.98780969	    103.89099604	      4.89007828	    -10.38486335	      0.24704004	     69.66908994	    109.19100802
      1.01000000	     -8.82645599	     -1.77604286	     -0.32769787	     -0.62741074	      1.18688875	     -0.60117966	     32.97022678	     -3.67130183	     -7.29117905	     58.74883376	      1.02536058	      9.28299135	     -4.54148058	     -6.11996740	     40.35800140	     -7.63954316	     -9.18127228	     21.72495438	      0.37917198	    -30.15767692	     -5.07335280	     -6.11996740	    -26.68682683	      0.59194330	      2.46955801	     31.44186857	     -9.19256965	     -7.35362172	     99.12111967	    103.59013377	      4.37047501	    -10.12393122	     -0.21578931	     70.66723910	    109.30647536
